<?xml version="1.0" encoding="utf-8"?>
<!-- Generator: Adobe Illustrator 17.1.0, SVG Export Plug-In . SVG Version: 6.00 Build 0)  -->
<!DOCTYPE svg PUBLIC "-//W3C//DTD SVG 1.1//EN" "http://www.w3.org/Graphics/SVG/1.1/DTD/svg11.dtd">
<svg width="300" height="250" version="1.1" id="cup-coffee-heart" xmlns="http://www.w3.org/2000/svg" xmlns:xlink="http://www.w3.org/1999/xlink" x="0px"
	 y="0px" viewBox="0 0 1009.9999 936.6011" enable-background="new 0 0 1009.9999 936.6011" xml:space="preserve">
<g id="cup-coffee-heart-cup-coffee-heart">
	<g>
		<path fill="#F4EDE9" d="M464.6425,836.2827c-102.5366,0-197.8819-40.9941-268.5073-115.4003
			C125.5717,646.4976,89.6942,548.9526,95.1395,446.231c0.5547-10.9317,1.6646-22.1509,3.4317-34.2129
			c1.2739-8.4043,3-16.5415,4.7876-24.6582l0.4316-2.1783c0.3907-2.0961,0.8218-4.2534,1.356-6.3701
			c15.9253-65.0771,49.9126-125.1401,98.2632-173.4702C272.1444,136.5859,362.578,97.8315,458.0053,96.167l6.6787-0.0615
			c184.978,0,341.3315,136.6679,366.5034,319.0356l4.1094-4.1299l13.7461,13.7466c36.4336-0.2671,94.1738-0.4516,94.1738-0.4516
			c34.9941,0,63.4131,28.3569,63.4541,63.2275c0,16.377-6.8623,32.6103-18.8633,44.6103
			c-11.918,11.918-28.0488,18.7813-44.3027,18.7813c-0.5752,0-79.9951-0.5957-113.9824-1.4785l-1.6846,0.3281l-1.0684,0.4727
			l-0.124-0.0616l-2.0547,0.8018l0.8018,0.4316c-0.9248,1.8077-1.1094,2.3418-1.1309,2.4864
			c-2.1982,9.123-4.9316,18.1855-7.787,27.1855c-0.9258,2.7949-1.8291,5.2188-2.6924,7.582l-1.3564,3.6778
			c-1.6641,4.706-3.5752,9.7617-5.6299,14.7344c-1.8701,4.5605-3.9043,9.246-6.042,13.9101
			c-0.9443,2.1377-2.1562,4.6035-3.3896,7.0693l-1.1514,2.3018c-2.794,5.7324-5.7119,11.5068-8.877,17.1367
			c-16.7675,29.6524-37.3154,56.7344-61.0293,80.4473c-25.7675,25.7891-55.0078,47.5293-86.9199,64.6465l-2.0547,1.0469
			c-9.0615,4.7265-17.8564,8.9189-27.5547,13.0693c-2.8769,1.2119-10.0898,4.0283-10.0898,4.0283
			c-6.9248,2.6914-13.9531,5.1982-21.0625,7.5c-4.2119,1.3555-8.3828,2.6094-12.5547,3.7803
			c-6.4111,1.8701-13.2334,3.5342-20.1377,5.0752c-0.1025,0.041-9.3086,2.0547-12.6787,2.7129
			c-7.8901,1.459-15.3701,2.4863-22.8496,3.3906l-3.4111,0.4521c-2.4864,0.3487-5.0342,0.6778-7.6236,0.9444
			c-12.5757,1.1513-23.7129,1.6855-34.2339,1.6855H464.6425z"/>
		<path fill="#E3B08D" d="M464.7045,181.854c-75.9888,0-147.415,29.5693-201.1084,83.2627
			c-53.7139,53.7139-83.3037,125.1401-83.2832,201.1289c-0.0205,75.9268,29.5898,147.3731,83.3037,201.0664
			c53.7139,53.7148,125.1406,83.3047,201.0674,83.2637c75.9263,0,147.353-29.5703,201.0669-83.2832
			c53.6933-53.6934,83.2832-125.1201,83.3242-201.0884c0.0205-75.9473-29.5488-147.3735-83.2832-201.0874
			C612.0984,211.4233,540.6522,181.813,464.7045,181.854z"/>
		<path fill="#BCB3BE" d="M785.199,785.4253c-174.7851,174.8066-459.2178,174.8262-634.0444,0
			C-23.631,610.6187-23.6105,326.2075,151.1752,151.4014C325.9813-23.4253,610.4139-23.4253,785.199,151.3809
			c70.625,70.584,115.9766,164.4907,127.791,264.4384l2.2198,18.5967l-91.544,0.5342l-1.9316-14.6309
			c-0.2461-1.8901-0.6162-3.7192-0.9649-5.5478c-0.33-1.7671-1.459-8.5894-1.459-8.5894
			c-1.0283-6.5551-2.0146-13.1098-3.4531-19.5005c-0.287-1.2329-0.6161-2.3632-0.9648-3.5136c-0.4317-1.5-0.8633-3-1.2334-4.521
			c-2.0342-8.1988-4.0694-16.418-6.6572-24.3911l-1.8907-5.0137c-2.8769-8.4453-6.0215-17.3838-9.7402-25.9937l-1.3975-2.8974
			c-8.2197-18.7403-17.9189-36.6172-28.7881-53.0972l-1.4394-2.1577c-67.8301-101.4893-182.1816-161.0796-305.5557-158.8809
			c-93.2695,1.6436-181.2173,39.1446-247.7119,105.6397c-39.0014,38.9805-68.8994,86.9409-86.5298,138.6611l-0.6987,2.1782
			c-3.4727,10.336-6.2056,19.7061-8.4043,28.6651c-0.4932,1.9931-0.8428,3.9453-1.2124,5.8974l-1.7056,8.3428
			c-1.2329,5.8565-2.5068,11.7334-3.3701,17.7334c-1.685,11.3018-2.8354,22.5415-3.4111,33.4531
			c-5.2808,99.9068,29.6313,194.8208,98.2837,267.1919c68.7143,72.4335,161.4907,112.2979,261.2744,112.2568
			c11.7944,0.041,24.0005-0.5752,36.2475-1.7881c2.0137-0.1846,4.0069-0.5547,6-0.8828l7.8497-1.1309
			c7.2123-0.9453,14.4043-1.8691,21.493-3.2461c2.6514-0.5547,5.3438-1.2744,8.0352-1.9941
			c2.1367-0.5742,11.7324-2.959,11.7324-2.959c4.7676-1.1299,9.5557-2.2598,14.2617-3.6982
			c6.2256-1.8702,12.1846-4.1299,18.0821-6.3907c0,0,6.9667-2.5683,8.7333-3.165c1.9317-0.6777,3.8624-1.3145,5.7334-2.1152
			c43.9727-18.1856,83.1387-44.3243,116.5508-77.7559c46.419-46.4395,79.2559-104.8389,94.8926-168.9297l3.2051-13.0898
			l13.4599,0.329c15.1026,0.3906,38.1592,0.7197,59.5284,0.9658l20.3232,0.2461l-4.1514,19.9121
			C888.8865,645.9839,846.8651,723.7798,785.199,785.4253L785.199,785.4253z"/>
	</g>
	<g>
		<g>
			<path fill="#B79584" d="M464.684,764.4253h-0.0415c-79.6255,0-154.5244-31.0293-210.8276-87.3516
				c-56.3438-56.3242-87.331-131.2031-87.3105-210.8486c0-79.667,30.9873-154.5659,87.3105-210.8691
				c56.3033-56.3233,131.2021-87.3311,210.8896-87.3516c79.7075,0,154.5649,31.0283,210.8892,87.3516
				c56.2822,56.3237,87.3105,131.2021,87.29,210.8276C762.8632,630.6128,629.0721,764.4038,464.684,764.4253L464.684,764.4253z
				 M464.7865,201.478c-70.8305,0-137.3257,27.5352-187.2998,77.5293c-49.9941,49.9947-77.5293,116.4898-77.5293,187.2383
				c-0.0205,70.707,27.4937,137.1611,77.5088,187.1758c49.9946,49.9941,116.4692,77.5293,187.1763,77.5293
				c145.9765,0,264.7676-118.791,264.7881-264.7671c0-70.707-27.5146-137.1816-77.5088-187.1763
				C601.9276,229.0132,535.4734,201.478,464.7865,201.478L464.7865,201.478z"/>
		</g>
		<g>
			<path fill="#8C7C8E" d="M468.1977,936.6011c-119.9624,0-239.8833-45.6592-331.2212-136.9766
				c-182.6353-182.6347-182.6353-479.8076,0-662.4223C225.4374,48.7202,343.0775,0,468.1977,0
				c125.0991,0,242.7182,48.7202,331.2006,137.2022c80.0157,79.9956,128.3457,186.1694,136.1133,298.9189
				c0.6162,9.2266-6.3495,17.2197-15.5547,17.8364c-9.0009,0.5957-17.1992-6.3086-17.8369-15.5346
				c-7.1924-104.6949-52.0908-203.2867-126.3935-277.5694C693.5937,78.7007,584.3583,33.4531,468.1977,33.4531
				c-116.1812,0-225.417,45.2476-307.5704,127.4004c-169.5864,169.5869-169.5864,445.5121,0,615.1197
				c169.628,169.5869,445.5533,169.5869,615.1197,0c65.7138-65.7139,107.9619-148.751,122.1611-240.1915
				c1.4375-9.124,9.9658-15.2675,19.1094-13.9526c9.124,1.418,15.3906,9.9868,13.9736,19.1099
				c-15.329,98.4892-60.8232,187.9375-131.5928,258.6855C708.1014,890.9214,588.119,936.6011,468.1977,936.6011L468.1977,936.6011z"
				/>
		</g>
		<g>
			<path fill="#E6DBD5" d="M464.7865,839.6323h-0.082c-103.5234,0-199.7314-41.3642-270.9937-116.4482
				C122.5102,648.1206,86.3036,549.6929,91.7489,446.0464C102.0233,251.3901,262.8768,96.249,457.9437,92.8379l6.7403-0.0615
				c189.0054,0,348.3784,141.3735,370.7153,328.8379c32.3428-0.4317,107.8994-0.6783,107.8994-0.6783
				c36.7617,0.0205,66.6602,29.9185,66.7012,66.6592c0,17.7539-6.9453,34.4805-19.5625,47.1172
				c-12.6172,12.6172-29.3223,19.5625-47.0967,19.5625l0,0c-0.5752,0-79.9541-0.5957-113.9619-1.5
				c-1.3769,0-1.8086,1.5215-1.8701,1.8291C786.8026,722.4028,637.6609,839.6323,464.7865,839.6323L464.7865,839.6323z
				 M464.684,126.2295l-6.1441,0.0615c-177.601,3.103-324.0293,144.3325-333.3789,321.5225
				c-4.9521,94.3999,27.9868,184.0122,92.8174,252.3354c64.8716,68.3643,152.4697,106.0303,246.6641,106.0303h0.144
				c157.3814,0,293.1655-106.709,330.2144-259.5068c3.9453-16.1309,18.083-27.3706,34.3564-27.3706
				c34.9942,0.9248,114.0655,1.5205,114.086,1.5205c8.6914,0,17.0351-3.4727,23.3222-9.7813
				c6.3086-6.2876,9.7813-14.6098,9.7813-23.4253c-0.0205-18.3086-14.918-33.206-33.2061-33.2265
				c0.0615,0-75.331,0.2465-108.1064,0.5547c-17.0752,0-31.1504-12.6582-33.0625-29.4463
				C781.8495,254.9043,636.7567,126.2295,464.684,126.2295L464.684,126.2295z"/>
		</g>
	</g>
	<path fill="#F4C7B0" d="M465.7523,386.3735c-13.9526-31.7475-45.5971-54.0219-82.5024-54.0219
		c-49.6245,0-85.3584,41.0966-89.9404,89.9609c0,0-2.4043,12.1445,2.9175,34.0078c7.2949,29.8159,24.4321,56.1797,47.4057,76.4409
		l122.1196,105.167l119.941-105.167c23.0761-20.2612,40.1318-46.625,47.4472-76.4409c5.3223-21.8633,2.9385-34.0078,2.9385-34.0078
		c-4.501-48.8643-40.2754-89.9609-89.9404-89.9609C509.2533,332.3516,479.6225,354.626,465.7523,386.3735z"/>
</g>
</svg>
