<svg width="300" height="250" xmlns="http://www.w3.org/2000/svg" viewBox="0 0 1010 936.601"><path fill="#F4EDE9" d="M464.642 836.283c-102.536 0-197.881-40.994-268.507-115.4-70.563-74.385-106.44-171.93-100.995-274.652.554-10.932 1.664-22.15 3.431-34.213 1.274-8.404 3-16.541 4.788-24.658l.431-2.178c.391-2.097.822-4.254 1.356-6.37 15.926-65.078 49.913-125.14 98.264-173.47 68.734-68.756 159.168-107.51 254.595-109.175l6.679-.061c184.978 0 341.331 136.667 366.503 319.035l4.11-4.13 13.746 13.747c36.434-.267 94.174-.452 94.174-.452 34.994 0 63.413 28.357 63.454 63.228 0 16.377-6.862 32.61-18.863 44.61-11.918 11.918-28.05 18.781-44.303 18.781-.575 0-79.995-.595-113.983-1.478l-1.684.328-1.069.473-.124-.062-2.054.802.802.431c-.925 1.808-1.11 2.342-1.131 2.487-2.199 9.123-4.932 18.185-7.787 27.185-.926 2.795-1.83 5.22-2.693 7.582l-1.356 3.678a307.468 307.468 0 01-5.63 14.734 375.497 375.497 0 01-6.042 13.91c-.944 2.138-2.156 4.604-3.39 7.07l-1.151 2.302c-2.794 5.732-5.712 11.506-8.877 17.136-16.768 29.653-37.315 56.735-61.03 80.448-25.767 25.789-55.007 47.529-86.92 64.646l-2.054 1.047a390.868 390.868 0 01-27.555 13.07c-2.877 1.211-10.09 4.028-10.09 4.028a388.531 388.531 0 01-21.062 7.5 346.837 346.837 0 01-12.555 3.78c-6.41 1.87-13.233 3.534-20.137 5.075-.103.041-9.309 2.055-12.68 2.713-7.89 1.46-15.37 2.486-22.849 3.39l-3.41.453a208.95 208.95 0 01-7.624.944c-12.576 1.151-23.713 1.686-34.234 1.686h-.494z"/><path fill="#E3B08D" d="M464.704 181.854c-75.988 0-147.415 29.57-201.108 83.263-53.714 53.714-83.304 125.14-83.283 201.129-.02 75.926 29.59 147.373 83.304 201.066 53.713 53.715 125.14 83.305 201.067 83.264 75.926 0 147.353-29.57 201.067-83.284 53.693-53.693 83.283-125.12 83.324-201.088.02-75.947-29.549-147.373-83.283-201.087-53.694-53.694-125.14-83.304-201.088-83.263z"/><path fill="#BCB3BE" d="M785.199 785.425c-174.785 174.807-459.218 174.827-634.044 0-174.786-174.806-174.766-459.217.02-634.024 174.806-174.826 459.239-174.826 634.024-.02 70.625 70.584 115.977 164.49 127.791 264.438l2.22 18.597-91.544.534-1.932-14.63c-.246-1.89-.616-3.72-.965-5.548-.33-1.768-1.459-8.59-1.459-8.59-1.028-6.555-2.014-13.11-3.453-19.5a54.41 54.41 0 00-.965-3.514c-.431-1.5-.863-3-1.233-4.521-2.034-8.199-4.07-16.418-6.657-24.391l-1.89-5.014c-2.878-8.445-6.022-17.384-9.741-25.993l-1.398-2.898c-8.22-18.74-17.918-36.617-28.788-53.097l-1.44-2.158c-67.83-101.49-182.18-161.08-305.555-158.88-93.27 1.643-181.217 39.144-247.712 105.639-39.001 38.98-68.9 86.94-86.53 138.661l-.698 2.178c-3.473 10.336-6.206 19.706-8.404 28.665-.494 1.994-.843 3.946-1.213 5.898l-1.705 8.343c-1.233 5.856-2.507 11.733-3.37 17.733-1.686 11.302-2.836 22.542-3.412 33.453-5.28 99.907 29.632 194.82 98.284 267.192 68.714 72.434 161.49 112.298 261.274 112.257 11.795.04 24-.575 36.248-1.788 2.014-.185 4.007-.555 6-.883l7.85-1.131c7.212-.945 14.404-1.87 21.493-3.246 2.651-.555 5.343-1.274 8.035-1.994 2.137-.574 11.732-2.96 11.732-2.96 4.768-1.13 9.556-2.259 14.262-3.697 6.226-1.87 12.185-4.13 18.082-6.391 0 0 6.967-2.568 8.733-3.165 1.932-.678 3.863-1.315 5.734-2.115 43.972-18.186 83.138-44.325 116.55-77.756 46.42-46.44 79.256-104.84 94.893-168.93l3.205-13.09 13.46.33c15.103.39 38.16.719 59.529.965l20.323.246-4.152 19.912C888.886 645.984 846.865 723.78 785.2 785.425z"/><path fill="#B79584" d="M464.684 764.425h-.042c-79.625 0-154.524-31.029-210.827-87.351-56.344-56.324-87.331-131.203-87.31-210.849 0-79.667 30.987-154.566 87.31-210.869 56.303-56.323 131.202-87.331 210.89-87.352 79.707 0 154.564 31.029 210.889 87.352 56.282 56.324 87.31 131.202 87.29 210.828-.02 164.429-133.812 298.22-298.2 298.241zm.102-562.947c-70.83 0-137.325 27.535-187.3 77.53-49.993 49.994-77.529 116.49-77.529 187.238-.02 70.707 27.494 137.16 77.51 187.175 49.994 49.994 116.468 77.53 187.175 77.53 145.977 0 264.768-118.791 264.789-264.767 0-70.707-27.515-137.182-77.51-187.177-49.993-49.994-116.448-77.529-187.135-77.529z"/><path fill="#8C7C8E" d="M468.198 936.601c-119.963 0-239.884-45.66-331.221-136.977-182.636-182.634-182.636-479.807 0-662.422C225.436 48.72 343.077 0 468.197 0c125.1 0 242.719 48.72 331.201 137.202 80.016 79.996 128.346 186.17 136.114 298.92.616 9.226-6.35 17.219-15.555 17.835-9.001.596-17.2-6.308-17.837-15.534-7.192-104.695-52.09-203.287-126.394-277.57-82.132-82.152-191.368-127.4-307.528-127.4-116.181 0-225.417 45.248-307.57 127.4-169.587 169.587-169.587 445.513 0 615.12 169.627 169.587 445.553 169.587 615.119 0 65.714-65.714 107.962-148.75 122.161-240.191 1.438-9.124 9.966-15.268 19.11-13.953 9.124 1.418 15.39 9.987 13.973 19.11-15.329 98.49-60.823 187.938-131.593 258.685-91.297 91.297-211.279 136.977-331.2 136.977z"/><path fill="#E6DBD5" d="M464.786 839.632h-.082c-103.523 0-199.73-41.364-270.993-116.448-71.2-75.063-107.407-173.491-101.962-277.138C102.023 251.39 262.877 96.25 457.944 92.838l6.74-.062c189.005 0 348.378 141.374 370.715 328.838 32.343-.431 107.9-.678 107.9-.678 36.761.02 66.66 29.919 66.7 66.66 0 17.753-6.944 34.48-19.562 47.116-12.617 12.618-29.322 19.563-47.096 19.563-.576 0-79.954-.596-113.962-1.5-1.377 0-1.809 1.521-1.87 1.829-40.706 167.799-189.848 285.028-362.723 285.028zm-.102-713.402l-6.144.061c-177.601 3.103-324.03 144.333-333.379 321.523-4.952 94.4 27.987 184.012 92.817 252.335 64.872 68.364 152.47 106.03 246.665 106.03h.144c157.38 0 293.165-106.709 330.214-259.507 3.945-16.13 18.083-27.37 34.356-27.37 34.995.925 114.066 1.52 114.086 1.52 8.692 0 17.035-3.472 23.323-9.781 6.308-6.288 9.78-14.61 9.78-23.425-.02-18.309-14.917-33.206-33.205-33.227.061 0-75.331.247-108.107.555-17.075 0-31.15-12.658-33.062-29.446-20.322-170.594-165.415-299.269-337.488-299.269z"/><path fill="#F4C7B0" d="M465.752 386.373c-13.952-31.747-45.597-54.021-82.502-54.021-49.625 0-85.358 41.096-89.94 89.96 0 0-2.405 12.145 2.917 34.008 7.295 29.816 24.432 56.18 47.406 76.441l122.12 105.167 119.94-105.167c23.076-20.261 40.132-46.625 47.448-76.44 5.322-21.864 2.938-34.009 2.938-34.009-4.501-48.864-40.275-89.96-89.94-89.96-36.886 0-66.517 22.274-80.387 54.022z"/></svg>