<svg width="300" height="400" fill="#00512f" xmlns="http://www.w3.org/2000/svg" viewBox="0 0 78.24 122.88"><path fill-rule="evenodd" clip-rule="evenodd" d="M2.168 122.244c-1.225 0-2.168-1.033-2.168-2.326v-81.42c0-.56.175-1.084.506-1.485L10.96 18.794V2.325c0-1.276.945-2.325 2.135-2.325h51.069c1.029 0 1.904.804 2.098 1.871l1.104 18.091L78.24 39.146l-.338 83.333c-22.158 1.023-48.01-.235-75.734-.235zm23.505-60.301c7.852.235 14.481 9.238 14.808 20.109.297 10.035-4.878 18.15-11.846 19.158 2.322-10.316.894-15.521-1.218-20.369-2.048-4.689-4.785-9.74-2.136-18.901.125-.002.261-.001.392.003zm1.779 39.37c-.201.006-.401.006-.604 0-7.85-.234-14.48-9.238-14.805-20.109-.305-10.24 5.092-18.484 12.28-19.212-2.937 9.726-1.797 14.291.357 19.228 2.018 4.63 4.866 10.301 2.772 20.093zm-5.458-85.386h4.633v4.72h-4.633v-4.72zm9.056 0h4.633v4.72H31.05v-4.72zm9.02 0h4.635v4.72H40.07v-4.72zM62.012 4.615H15.228v11.312h2.553v4.72h-2.833c-2.955 5.175-5.805 10.438-8.706 15.647h43.946l11.68-15.629c-3.654 0-8.947-.018-12.6-.018v-4.72c4.195 0 8.426-.069 12.674-.069.019-3.776.035-7.483.07-11.243zm3.545 18.41l-9.756 13.27h17.115l-7.359-13.27zM55.096 40.928v76.699h18.002l-.141-76.699H55.096zm-50.848 0v76.699h46.756V40.928H4.248z"/></svg>