<svg xmlns="http://www.w3.org/2000/svg" viewBox="0 0 512.036 512.036"><path d="M273.108 314.855c0-60.655 49.766-110.003 110.933-110.003 54.426 0 93.926-35.627 93.926-84.71v-16.887c-10.103-5.897-21.811-9.335-34.33-9.335h-8.533c-98.739 0-179.063 80.333-179.063 179.072 0 17.263 6.477 33.007 17.067 45.056v-3.193z"/><path d="M495.037 117.339v2.799c0 58.982-46.686 101.786-111.002 101.786-51.755 0-93.858 41.694-93.858 92.928v17.246c10.086 5.871 21.768 9.293 34.253 9.293h8.533c98.748 0 179.072-80.333 179.072-179.072.001-17.229-6.451-32.939-16.998-44.98zm-368.1 31.408a7.32 7.32 0 01-.7 1.263c-14.029 20.983-18.475 46.251-12.186 69.333 6.084 22.374 21.905 40.713 44.544 51.644l16.777 7.159c9.779-6.383 18.099-15.07 23.663-25.924l3.9-7.612c21.427-41.813 24.858-89.199 9.677-133.427C196.8 65.137 162.982 28.094 117.38 6.872c-16.282-7.578-34.15-8.525-50.355-4.07l2.85 1.434c57.301 26.666 81.937 88.839 57.062 144.511z"/><path d="M104.561 283.339a72.726 72.726 0 0030.771 6.801c6.409 0 12.757-.862 18.876-2.475l-2.671-1.143c-27.52-13.286-46.558-35.49-53.956-62.694-7.518-27.622-2.389-57.711 14.054-82.679 20.489-46.763-.563-98.918-49.186-121.549L46.85 11.783c-9.924 6.391-18.312 15.223-23.945 26.214l-3.9 7.603C-2.422 87.413-5.853 134.807 9.328 179.036c15.813 46.037 49.64 83.089 95.233 104.303zm57.987 119.368c42.24 42.453 88.457 43.58 130.159 3.157.23-.222.469-.427.725-.623l11.597-8.96c-3.217-12.39-10.018-23.663-19.942-32.58l-6.306-5.76c-75.034-69.478-191.454-66.603-259.354 6.221C7.71 375.998 1.02 391.188.184 407.367l3.157-2.449c54.46-49.238 111.173-50.176 159.207-2.211z"/><path d="M150.466 414.757c-41.779-41.719-87.603-40.644-136.175 3.234l-12.083 9.387c3.208 12.322 9.916 23.552 19.712 32.503l6.349 5.794c.06.06.128.111.196.171 35.866 30.788 81.468 46.063 126.771 46.063 48.597 0 96.845-17.587 132.318-52.471 11.819-11.844 18.586-26.999 19.473-43.127l-2.79 2.15c-48.708 46.941-104.721 45.593-153.771-3.704z"/></svg>